# xmcd
#
# Track frame offsets:
#	150
#	23189
#	41280
#	59694
#	83930
#	106141
#	127157
#	150954
#	174528
#	192952
#
# Disc length: 2822 seconds
#
# Revision: 1
# Processed by: cddbd v1.5.2PL0 Copyright (c) Steve Scherf et al.
# Submitted via: audiograbber 1.83.01
#
DISCID=7c0b040a
DTITLE=Starpoint - Object of My Desire and Other Hits
DYEAR=2006
DGENRE=R&B
TTITLE0=Object Of My Desire
TTITLE1=Restless
TTITLE2=He Wants My Body
TTITLE3=Don't Be So Serious
TTITLE4=D.Y.B.O.
TTITLE5=It's So Delicious
TTITLE6=Am I Still The One
TTITLE7=What You Been Missin'
TTITLE8=The More We Love
TTITLE9=Till The End Of Time
EXTD=
EXTT0=
EXTT1=
EXTT2=
EXTT3=
EXTT4=
EXTT5=
EXTT6=
EXTT7=
EXTT8=
EXTT9=
PLAYORDER=
